<?xml version="1.0" encoding="UTF-8" standalone="no"?> <svg version="1.1" width="512" height="512" xmlns:svg="http://www.w3.org/2000/svg"> <g> <g> <path fill="#ffffff"  d=" M 218.560, 67.771 228.512, 66.791 238.464, 65.811 248.416, 64.831 256.001, 64.084 265.953, 65.064 275.905, 66.044 285.857, 67.024 293.442, 67.771 303.011, 70.674 312.581, 73.577 322.150, 76.480 329.444, 78.693 338.263, 83.406 347.082, 88.120 355.902, 92.834 362.624, 96.427 370.354, 102.771 378.084, 109.115 385.814, 115.459 391.706, 120.295 398.050, 128.025 404.394, 135.755 410.738, 143.485 415.573, 149.377 420.287, 158.196 425.001, 167.015 429.715, 175.834 433.308, 182.556 436.211, 192.126 439.114, 201.695 442.016, 211.265 444.229, 218.558 445.209, 228.510 446.189, 238.462 447.170, 248.414 447.917, 255.999 437.917, 255.999 427.917, 255.999 424.239, 255.999 429.958, 264.203 435.676, 272.406 441.395, 280.610 447.114, 288.813 452.832, 297.017 456.686, 302.545 462.405, 294.341 468.124, 286.138 473.842, 277.934 479.561, 269.731 485.280, 261.528 489.133, 255.999 479.133, 255.999 469.133, 255.999 465.456, 255.999 464.475, 246.047 463.495, 236.096 462.515, 226.144 461.535, 216.192 461.431, 215.137 458.528, 205.567 455.625, 195.998 452.722, 186.429 449.820, 176.859 449.512, 175.845 444.798, 167.025 440.084, 158.206 435.370, 149.387 430.656, 140.568 430.156, 139.633 423.812, 131.903 417.468, 124.172 411.124, 116.442 404.780, 108.712 404.108, 107.893 396.378, 101.549 388.648, 95.205 380.918, 88.861 373.187, 82.517 372.368, 81.844 363.549, 77.130 354.729, 72.416 345.910, 67.702 337.091, 62.988 336.156, 62.489 326.586, 59.586 317.017, 56.683 307.448, 53.780 297.878, 50.877 296.864, 50.569 286.912, 49.589 276.960, 48.609 267.008, 47.629 257.056, 46.649 256.001, 46.545 246.049, 47.525 236.097, 48.505 226.146, 49.485 216.194, 50.465 215.139, 50.569 205.569, 53.472 196.000, 56.375 186.430, 59.278 176.861, 62.181 175.846, 62.489 167.027, 67.203 158.208, 71.917 149.389, 76.630 140.569, 81.344 139.634, 81.844 131.904, 88.188 124.174, 94.532 116.444, 100.876 108.714, 107.220 107.894, 107.893 101.550, 115.623 95.207, 123.353 88.863, 131.083 82.519, 138.813 81.846, 139.633 77.132, 148.452 72.418, 157.271 67.704, 166.090 62.990, 174.909 62.490, 175.845 59.588, 185.414 56.685, 194.983 53.782, 204.553 50.879, 214.122 50.571, 215.137 49.591, 225.089 48.611, 235.040 47.631, 244.992 46.651, 254.944 46.547, 255.999 47.527, 265.951 48.507, 275.903 49.487, 285.855 50.467, 295.807 50.571, 296.862 53.474, 306.431 56.377, 316.001 59.280, 325.570 62.183, 335.139 62.490, 336.154 67.204, 344.973 71.918, 353.793 76.632, 362.612 81.346, 371.431 81.846, 372.366 88.190, 380.096 94.534, 387.826 100.878, 395.556 107.222, 403.286 107.894, 404.106 115.625, 410.450 123.355, 416.794 131.085, 423.138 138.815, 429.482 139.634, 430.154 148.454, 434.868 157.273, 439.582 166.092, 444.296 174.911, 449.010 175.846, 449.510 185.416, 452.413 194.985, 455.316 204.555, 458.219 214.124, 461.121 215.139, 461.429 225.090, 462.409 235.042, 463.390 244.994, 464.370 254.946, 465.350 256.001, 465.454 265.953, 464.474 275.905, 463.494 285.857, 462.513 295.809, 461.533 296.864, 461.429 306.433, 458.526 316.002, 455.624 325.572, 452.721 335.141, 449.818 336.156, 449.510 344.975, 444.796 353.794, 440.082 362.614, 435.368 371.433, 430.654 372.368, 430.154 380.098, 423.810 387.828, 417.467 395.558, 411.123 403.288, 404.779 404.108, 404.106 410.452, 396.376 416.796, 388.646 423.140, 380.916 429.484, 373.186 430.156, 372.366 434.870, 363.547 439.584, 354.728 444.298, 345.908 449.012, 337.089 449.512, 336.154 440.273, 332.327 433.308, 329.442 428.594, 338.261 423.880, 347.081 419.166, 355.900 415.573, 362.622 409.229, 370.352 402.885, 378.082 396.541, 385.812 391.706, 391.704 383.976, 398.048 376.246, 404.392 368.516, 410.736 362.624, 415.571 353.804, 420.285 344.985, 424.999 336.166, 429.713 329.444, 433.306 319.875, 436.209 310.305, 439.112 300.736, 442.015 293.442, 444.227 283.490, 445.207 273.538, 446.188 263.586, 447.168 256.001, 447.915 246.049, 446.935 236.097, 445.955 226.146, 444.974 218.560, 444.227 208.991, 441.324 199.421, 438.422 189.852, 435.519 182.558, 433.306 173.739, 428.592 164.920, 423.878 156.101, 419.164 149.379, 415.571 141.648, 409.227 133.918, 402.883 126.188, 396.539 120.296, 391.704 113.952, 383.974 107.608, 376.244 101.265, 368.514 96.429, 362.622 91.715, 353.803 87.001, 344.983 82.287, 336.164 78.694, 329.442 75.791, 319.873 72.889, 310.303 69.986, 300.734 67.773, 293.440 66.793, 283.488 65.813, 273.536 64.833, 263.585 64.086, 255.999 65.066, 246.047 66.046, 236.096 67.026, 226.144 67.773, 218.558 70.676, 208.989 73.579, 199.420 76.482, 189.850 78.694, 182.556 83.408, 173.737 88.122, 164.918 92.836, 156.099 96.429, 149.377 102.773, 141.647 109.117, 133.917 115.461, 126.186 120.296, 120.295 128.026, 113.951 135.757, 107.607 143.487, 101.263 149.379, 96.427 158.198, 91.713 167.017, 86.999 175.836, 82.285 182.558, 78.693 192.128, 75.790 201.697, 72.887 211.266, 69.984 218.560, 67.771 " id="path2"/> </g> </g> </svg>
